<svg xmlns="http://www.w3.org/2000/svg" viewBox="0 0 859.49 203.32"><defs><style>.cls-1{fill:#fff;}</style></defs><g id="Layer_2" data-name="Layer 2"><g id="Layer_1-2" data-name="Layer 1"><path class="cls-1" d="M55.09,29.85a71.45,71.45,0,0,1,7.57.44q4.07.43,7.9,1.2t7,1.54a23.57,23.57,0,0,1,4.93,1.65V59h-2q0-10.53-7.24-16.57a26.57,26.57,0,0,0-17.56-6q-12.07,0-19.54,7.57a24.41,24.41,0,0,0-7.46,17.67,31.39,31.39,0,0,0,1.87,9.77,25.7,25.7,0,0,0,6.91,10.43l43.24,39.94A30.78,30.78,0,0,1,89.55,135a45.62,45.62,0,0,1,2.19,13.61q0,18.21-11.08,29.63t-30,11.41a83.25,83.25,0,0,1-12.4-1.1,60.44,60.44,0,0,1-13.83-3.84,33.19,33.19,0,0,1-11.08-7.13,48.73,48.73,0,0,1-.66-8.78,73.63,73.63,0,0,1,.88-11.08A69.15,69.15,0,0,1,16,147.05h2q-1.11,11.19,2.85,19.53a27.68,27.68,0,0,0,11.52,12.63,31.46,31.46,0,0,0,17.23,3.84,32.79,32.79,0,0,0,20.74-8.45q8.67-7.8,8.67-21a29.22,29.22,0,0,0-2.19-11.53,25,25,0,0,0-6.37-8.89L28.31,94.16a34.41,34.41,0,0,1-9.22-13.5,40.94,40.94,0,0,1-2.63-13.72,38.45,38.45,0,0,1,4.39-17.78A35.18,35.18,0,0,1,33.91,35.22Q42.58,29.85,55.09,29.85ZM82.52,32v4.61H65.84V32Z" transform="translate(-12.73 -29.85)"/><path class="cls-1" d="M135.86,170.54q-1.55,4.38-.44,7.46a9.1,9.1,0,0,0,3.62,4.72,9.38,9.38,0,0,0,5.16,1.64h2v2.2H102.06v-2.2h2a20.49,20.49,0,0,0,10.43-3.18q5.37-3.18,8.89-10.64ZM183.05,29.85l2,15.36L129.93,185.9H116.76L173,52.45Q175.37,47,177,43t2.85-7.69a20,20,0,0,0,1.21-5.48ZM214,126.64v6.58h-68.7v-6.58ZM183.05,29.85l65,155.39H229.36L178.66,50.7Zm40.82,140.69h18q3.28,7.46,8.78,10.64a21,21,0,0,0,10.53,3.18h1.76v2.2H213.55v-2.2h2a9.85,9.85,0,0,0,7.46-3.62C225.19,178.33,225.48,174.92,223.87,170.54Z" transform="translate(-12.73 -29.85)"/><path class="cls-1" d="M292.13,170.54q-1.54,4.38-.44,7.46a9,9,0,0,0,3.62,4.72,9.38,9.38,0,0,0,5.16,1.64h2v2.2H258.33v-2.2h2a20.49,20.49,0,0,0,10.43-3.18q5.37-3.18,8.89-10.64ZM339.31,29.85l2,15.36L286.2,185.9H273L329.22,52.45Q331.64,47,333.28,43t2.85-7.69a20.36,20.36,0,0,0,1.21-5.48Zm30.95,96.79v6.58h-68.7v-6.58ZM339.31,29.85l65,155.39H385.62L334.92,50.7Zm40.83,140.69h18q3.28,7.46,8.77,10.64a21.05,21.05,0,0,0,10.54,3.18h1.76v2.2H369.82v-2.2h2a9.85,9.85,0,0,0,7.46-3.62C381.46,178.33,381.75,174.92,380.14,170.54Z" transform="translate(-12.73 -29.85)"/><path class="cls-1" d="M494.93,51.8a79.15,79.15,0,0,1,28.2,4.93,70.44,70.44,0,0,1,23,14.16,65.6,65.6,0,0,1,15.59,21.84,68.27,68.27,0,0,1,5.6,28,68.29,68.29,0,0,1-5.6,28,65.6,65.6,0,0,1-15.59,21.84,70.25,70.25,0,0,1-23,14.15,79.16,79.16,0,0,1-28.2,4.94,80.06,80.06,0,0,1-28.32-4.94,69.93,69.93,0,0,1-23.15-14.15,65.57,65.57,0,0,1-15.58-21.84,68.13,68.13,0,0,1-5.6-28,68.11,68.11,0,0,1,5.6-28,65.57,65.57,0,0,1,15.58-21.84,70.12,70.12,0,0,1,23.15-14.16A80.05,80.05,0,0,1,494.93,51.8Zm0,131.25a53,53,0,0,0,28.53-7.91,57.15,57.15,0,0,0,20.3-21.94q7.57-14.05,7.57-32.49,0-18.64-7.57-32.59a57.43,57.43,0,0,0-20.3-21.84,55.48,55.48,0,0,0-57.07,0,57.43,57.43,0,0,0-20.3,21.84q-7.57,13.93-7.57,32.59,0,18.44,7.57,32.49a57.15,57.15,0,0,0,20.3,21.94A53,53,0,0,0,494.93,183.05Zm-.44,6.36,2.19-4.83a42.55,42.55,0,0,1,9,1.32q5.7,1.32,13.28,3.73t16.79,5.82q9.22,3.39,19.75,7.46t22.17,8.67a117.44,117.44,0,0,0,23.71,6.58,121.19,121.19,0,0,0,25.68,1.65,85.37,85.37,0,0,0,24.8-4.72,61,61,0,0,0,20.85-12.29l.66.88q-1.32,3.51-6.48,8.89A64.19,64.19,0,0,1,653.17,223a76.82,76.82,0,0,1-20.08,8,79,79,0,0,1-25.79,1.87q-14.26-1.11-30.95-8.12-8.77-3.74-19-9t-21-10.65q-10.75-5.37-21.4-9.65A103.6,103.6,0,0,0,494.49,189.41Z" transform="translate(-12.73 -29.85)"/><path class="cls-1" d="M602.69,54.87V66.5h-.44a9.54,9.54,0,0,0-3.18-6.69,10.42,10.42,0,0,0-7.35-2.75h-3.3V54.87Zm13.61,0v83q0,21.3,10.86,33.58T656.9,183.7q20.85,0,32.82-11.63t12-31.82V54.87h10.09v85.38q0,22.83-14.59,36.1t-40.06,13.28q-25.23,0-40-13.17t-14.82-36V54.87Zm13.83,0v2.19h-3.3a10.92,10.92,0,0,0-7.35,2.75,8.52,8.52,0,0,0-3.18,6.69h-.44V54.87Zm72,0V66.5h-.44a8.64,8.64,0,0,0-3.08-6.69,10.8,10.8,0,0,0-7.46-2.75h-3.29V54.87Zm23.48,0v2.19h-3.29a10.54,10.54,0,0,0-7.25,2.75,9.39,9.39,0,0,0-3.29,6.69h-.44V54.87Z" transform="translate(-12.73 -29.85)"/><path class="cls-1" d="M757,170.54c-1.61,4.38-1.39,7.79.66,10.2a9,9,0,0,0,7,3.62h1.76v2.2H724.51v-2.2h1.75a17.17,17.17,0,0,0,9.44-3.18q4.83-3.18,8.34-10.64ZM799.35,51.8l1.54,15.14-50.27,119H736.8l52-111.5q2.41-5.27,4.07-9.11c1.09-2.55,2.08-5.08,3-7.57a26.55,26.55,0,0,0,1.53-5.92Zm25.9,83.62V142H767.09v-6.58ZM799.35,51.8l60.36,133.44H842.37L795.62,71.33Zm37.09,118.74h16.68q3.3,7.46,8.12,10.64a16.87,16.87,0,0,0,9.22,3.18h1.76v2.2h-45v-2.2H829c2.49,0,4.75-1.2,6.8-3.62S838.05,174.92,836.44,170.54Z" transform="translate(-12.73 -29.85)"/></g></g></svg>